<svg xmlns="http://www.w3.org/2000/svg" viewBox="0 0 1281.42 357.9"><defs><style>.cls-1{fill:#000;}</style></defs><title>Asset 2</title><g id="Layer_2" data-name="Layer 2"><g id="Layer_1-2" data-name="Layer 1"><g id="Layer_2-2" data-name="Layer 2-2"><polygon class="cls-1" points="547.2 190.1 559.9 145.9 550.9 145.9 543.2 178.9 542.8 180.7 542.7 180.7 542.3 178.8 534.7 145.9 525.7 145.9 538.3 190.1 547.2 190.1"/><rect class="cls-1" x="564" y="145.9" width="8.5" height="44.2"/><polygon class="cls-1" points="605 183.4 588.5 183.4 588.5 145.9 579.9 145.9 579.9 190.1 605 190.1 605 183.4"/><polygon class="cls-1" points="641.5 145.9 632.9 145.9 632.9 174.1 632.7 174.1 618.7 145.9 610.1 145.9 610.1 190.1 618.7 190.1 618.7 161.9 618.9 161.9 632.9 190.1 641.5 190.1 641.5 145.9"/><rect class="cls-1" x="648.8" y="145.9" width="8.5" height="44.2"/><path class="cls-1" d="M673.7,180.5h11.1l2.5,9.6h9l-12.5-44.2h-8.9l-12.6,44.2h8.9Zm5.5-20.8h.2l3.7,14h-7.6Z"/><path class="cls-1" d="M714.6,190.7a15.35,15.35,0,0,0,11.3-4.2c2.9-2.8,4.3-6.7,4.3-11.8V145.8h-8.6v28.9c0,3-.6,5.4-1.9,6.9a6.8,6.8,0,0,1-9.6.7,4.62,4.62,0,0,1-.7-.7c-1.3-1.6-1.9-3.9-1.9-6.9V145.8H699v28.9c0,5,1.4,8.9,4.3,11.8A15.35,15.35,0,0,0,714.6,190.7Z"/><path class="cls-1" d="M760.9,187.5a11.21,11.21,0,0,0,3.9-8.9,11.72,11.72,0,0,0-3.3-8.8,24,24,0,0,0-9.7-5.4,22,22,0,0,1-5.3-3.2,4.76,4.76,0,0,1-1.5-3.7,5.71,5.71,0,0,1,1.4-4.1,4.73,4.73,0,0,1,3.8-1.6,5.53,5.53,0,0,1,4.4,1.8,7.43,7.43,0,0,1,1.5,5.2h8.3l.1-.2a12.32,12.32,0,0,0-3.8-9.8c-2.6-2.4-6.1-3.6-10.4-3.6a15.17,15.17,0,0,0-10,3.4,11.21,11.21,0,0,0-3.9,8.9c0,3.6,1.1,6.5,3.4,8.5a32,32,0,0,0,10.2,5.4,12.6,12.6,0,0,1,4.8,3,5.87,5.87,0,0,1,1.3,4.2,5,5,0,0,1-5.6,5.5,6.48,6.48,0,0,1-5-1.8c-1.1-1.2-1.7-3.2-1.7-6h-8.4l-.1.2c-.1,4.8,1.3,8.3,4.3,10.7a16.86,16.86,0,0,0,10.8,3.5C754.9,190.7,758.3,189.7,760.9,187.5Z"/><path class="cls-1" d="M792.7,180.5h11.1l2.5,9.6h9l-12.5-44.2h-8.9l-12.7,44.2h9Zm5.4-20.8h.2l3.7,14h-7.5Z"/><path class="cls-1" d="M833.6,145.9H818.8v44.2h8.6v-16h6.2c4.4,0,8-1.3,10.6-3.9a15.42,15.42,0,0,0,0-20.5C841.5,147.1,838,145.9,833.6,145.9Zm4.4,19.4a5.1,5.1,0,0,1-4.4,2.1h-6.2V152.6h6.2a5.1,5.1,0,0,1,4.4,2.1,8.7,8.7,0,0,1,1.5,5.4A9.55,9.55,0,0,1,838,165.3Z"/><path class="cls-1" d="M868.5,164.4a22,22,0,0,1-5.3-3.2,5.23,5.23,0,0,1-1.6-3.7,6.19,6.19,0,0,1,1.4-4.1,4.73,4.73,0,0,1,3.8-1.6,5.53,5.53,0,0,1,4.4,1.8,7.43,7.43,0,0,1,1.5,5.2H881l.1-.2a12,12,0,0,0-3.8-9.8c-2.6-2.4-6.1-3.6-10.4-3.6a15.17,15.17,0,0,0-10,3.4,11.21,11.21,0,0,0-3.9,8.9c0,3.6,1.1,6.5,3.4,8.5a32,32,0,0,0,10.2,5.4,12.6,12.6,0,0,1,4.8,3,5.87,5.87,0,0,1,1.3,4.2,5,5,0,0,1-5.6,5.5,6.48,6.48,0,0,1-5-1.8c-1.1-1.2-1.7-3.2-1.7-6H852l-.1.2c-.1,4.8,1.3,8.3,4.3,10.7a16.86,16.86,0,0,0,10.8,3.5c4.3,0,7.7-1.1,10.2-3.2a11.21,11.21,0,0,0,3.9-8.9,11.72,11.72,0,0,0-3.3-8.8C876,167.6,872.8,165.8,868.5,164.4Z"/><polygon class="cls-1" points="895.7 171.5 898 171.5 907.5 190.1 918.4 190.1 904.7 166.1 917.5 145.9 906.9 145.9 897.4 164 895.7 164 895.7 145.9 887.1 145.9 887.1 190.1 895.7 190.1 895.7 171.5"/><path class="cls-1" d="M949.5,182.6v-3.2a13.16,13.16,0,0,0-1.5-6.7,8.32,8.32,0,0,0-5-3.8,11.19,11.19,0,0,0,4.6-4,11.49,11.49,0,0,0,1.6-6c0-4.1-1.3-7.3-3.8-9.6s-6-3.4-10.4-3.4H921.8v44.2h8.6V172.4h5.2a4.47,4.47,0,0,1,4,1.9,8.69,8.69,0,0,1,1.4,5.2v3.1a32.53,32.53,0,0,0,.3,4.4,5.48,5.48,0,0,0,1.4,3.2h8.9v-.6a5.07,5.07,0,0,1-1.5-3A19.39,19.39,0,0,1,949.5,182.6Zm-10.3-18.5a5.18,5.18,0,0,1-4.2,1.7h-4.6V152.7h4.7a5.26,5.26,0,0,1,4.2,1.8,7.81,7.81,0,0,1,1.4,4.9A8,8,0,0,1,939.2,164.1Z"/><rect class="cls-1" x="956.7" y="145.9" width="8.5" height="44.2"/><polygon class="cls-1" points="969.1 152.6 979.3 152.6 979.3 190.1 987.9 190.1 987.9 152.6 998.3 152.6 998.3 145.9 969.1 145.9 969.1 152.6"/><rect class="cls-1" x="1002.9" y="145.9" width="8.5" height="44.2"/><polygon class="cls-1" points="1027.4 170.6 1040.9 170.6 1040.9 163.9 1027.4 163.9 1027.4 152.6 1043.5 152.6 1043.5 145.9 1018.8 145.9 1018.8 190.1 1043.6 190.1 1043.6 183.4 1027.4 183.4 1027.4 170.6"/><path class="cls-1" d="M1052.2,187.2a16.86,16.86,0,0,0,10.8,3.5c4.3,0,7.7-1.1,10.2-3.2a11.21,11.21,0,0,0,3.9-8.9,11.72,11.72,0,0,0-3.3-8.8,24,24,0,0,0-9.7-5.4,22,22,0,0,1-5.3-3.2,4.76,4.76,0,0,1-1.5-3.7,5.71,5.71,0,0,1,1.4-4.1,4.73,4.73,0,0,1,3.8-1.6,5.23,5.23,0,0,1,4.4,1.8,7.43,7.43,0,0,1,1.5,5.2h8.3l.1-.2a12.32,12.32,0,0,0-3.8-9.8c-2.6-2.4-6.1-3.6-10.4-3.6a15.17,15.17,0,0,0-10,3.4,11.21,11.21,0,0,0-3.9,8.9c0,3.6,1.1,6.5,3.4,8.5a32,32,0,0,0,10.2,5.4,12.6,12.6,0,0,1,4.8,3,5.87,5.87,0,0,1,1.3,4.2,5,5,0,0,1-5.6,5.5,6.48,6.48,0,0,1-5-1.8c-1.1-1.2-1.7-3.2-1.7-6h-8.3l-.1.2C1047.8,181.3,1049.2,184.9,1052.2,187.2Z"/><path class="cls-1" d="M538.6,220.5,526,264.7h8.9l2.5-9.6h11.1l2.5,9.6h9l-12.5-44.2Zm.6,28,3.7-14h.2l3.7,14Z"/><polygon class="cls-1" points="557.1 227.3 567.2 227.3 567.2 264.8 575.9 264.8 575.9 227.3 586.2 227.3 586.2 220.5 557.1 220.5 557.1 227.3"/><polygon class="cls-1" points="599 220.5 590.4 220.5 590.4 264.8 615.5 264.8 615.5 258.1 599 258.1 599 220.5"/><rect class="cls-1" x="621.1" y="220.5" width="8.5" height="44.2"/><polygon class="cls-1" points="645.6 245.3 659.1 245.3 659.1 238.6 645.6 238.6 645.6 227.3 661.7 227.3 661.7 220.5 637 220.5 637 264.8 661.8 264.8 661.8 258.1 645.6 258.1 645.6 245.3"/><polygon class="cls-1" points="697.6 220.5 686.9 220.5 677.5 238.7 675.8 238.7 675.8 220.5 667.2 220.5 667.2 264.8 675.8 264.8 675.8 246.2 678.1 246.2 687.6 264.8 698.5 264.8 684.8 240.8 697.6 220.5"/><path class="cls-1" d="M724.2,249.5c0,3-.6,5.3-1.9,6.9a6.79,6.79,0,0,1-9.5.8,6,6,0,0,1-.8-.8,11.33,11.33,0,0,1-1.9-6.9V220.6h-8.5v28.9c0,5,1.4,8.9,4.3,11.7a14.22,14.22,0,0,0,7.7,3.9,6.57,6.57,0,0,0-1.2,1.7,8.31,8.31,0,0,0-1.2,4.4,5.71,5.71,0,0,0,1.9,4.6,7.88,7.88,0,0,0,4.9,1.7,8.63,8.63,0,0,0,2.8-.4,14.46,14.46,0,0,0,2.2-.9l-1-4.5a11.73,11.73,0,0,0-1.1.5,5,5,0,0,1-1.2.2c-.9,0-1.5-.2-1.8-.7a2.3,2.3,0,0,1-.4-1.4,5.83,5.83,0,0,1,.6-2.6,10.71,10.71,0,0,1,1.5-2.2,14.44,14.44,0,0,0,8.9-4.1c2.9-2.8,4.3-6.7,4.3-11.8V220.7h-8.6Z"/><polygon class="cls-1" points="750.5 227.3 760.7 227.3 760.7 264.8 769.3 264.8 769.3 227.3 779.7 227.3 779.7 220.5 750.5 220.5 750.5 227.3"/><polygon class="cls-1" points="806.3 220.5 798.7 253.6 798.3 255.3 798.1 255.3 797.8 253.5 790.2 220.5 781.2 220.5 793.8 264.8 802.7 264.8 815.4 220.5 806.3 220.5"/><path class="cls-1" d="M826.4,220.5l-12.5,44.2h8.9l2.5-9.6h11.1l2.5,9.6h9l-12.6-44.2Zm.7,28,3.7-14h.2l3.7,14Z"/><path class="cls-1" d="M879.1,257.3v-3.2a13.16,13.16,0,0,0-1.5-6.7,8.32,8.32,0,0,0-5-3.8,11.19,11.19,0,0,0,4.6-4,10.62,10.62,0,0,0,1.6-6c0-4.1-1.3-7.3-3.8-9.6s-6-3.4-10.4-3.4H851.4v44.2H860V247.1h5.2a4.47,4.47,0,0,1,4,1.9,8.69,8.69,0,0,1,1.4,5.2v3.1a32.53,32.53,0,0,0,.3,4.4,5.37,5.37,0,0,0,1.3,3.2h8.9v-.6a5.07,5.07,0,0,1-1.5-3A29.13,29.13,0,0,1,879.1,257.3Zm-10.3-18.6a5.18,5.18,0,0,1-4.2,1.7H860V227.3h4.7a5.13,5.13,0,0,1,4.2,1.8,7.81,7.81,0,0,1,1.4,4.9,7.16,7.16,0,0,1-1.5,4.7Z"/><polygon class="cls-1" points="916.1 220.5 905.5 220.5 896.1 238.7 894.3 238.7 894.3 220.5 885.8 220.5 885.8 264.8 894.3 264.8 894.3 246.2 896.7 246.2 906.1 264.8 917.1 264.8 903.4 240.8 916.1 220.5"/><polygon class="cls-1" points="934.5 239.8 934.3 239.8 926.7 220.5 917.3 220.5 930 248.5 930 264.8 938.5 264.8 938.5 249 951.5 220.5 942.1 220.5 934.5 239.8"/><polygon class="cls-1" points="974.5 253.4 974.4 253.4 966.1 220.5 955 220.5 955 264.8 963.5 264.8 963.5 237.1 963.7 237.1 971.6 264.8 977.4 264.8 985.4 236.9 985.5 236.9 985.5 264.8 994 264.8 994 220.5 982.8 220.5 974.5 253.4"/><path class="cls-1" d="M1015.9,219.9c-4.9,0-8.8,1.5-11.7,4.4s-4.4,7-4.4,12.2v12.3c0,5.2,1.4,9.3,4.4,12.2a16,16,0,0,0,11.7,4.4c4.9,0,8.8-1.5,11.7-4.4s4.4-7,4.4-12.2V236.5c0-5.2-1.5-9.3-4.4-12.2S1020.8,219.9,1015.9,219.9Zm7.6,29c0,3.3-.6,5.7-1.9,7.4a6.93,6.93,0,0,1-5.7,2.5,6.61,6.61,0,0,1-5.6-2.5c-1.3-1.6-1.9-4.1-1.9-7.4V236.4c0-3.2.6-5.7,1.9-7.3a7.63,7.63,0,0,1,11.3,0c1.3,1.6,2,4.1,2,7.3Z"/><path class="cls-1" d="M1066,219.9c-4.6,0-8.3,1.4-11,4.3s-4.1,6.8-4.1,12v13.1q0,7.8,4.2,12c2.8,2.8,6.6,4.2,11.3,4.2s8.2-1.2,10.7-3.5,3.7-5.9,3.6-10.6l-.1-.2h-8.3c0,2.9-.5,4.9-1.4,6a5.74,5.74,0,0,1-4.6,1.7,6.09,6.09,0,0,1-5.2-2.3c-1.2-1.5-1.7-3.9-1.7-7.2V236.2c0-3.2.5-5.6,1.6-7.1a5.38,5.38,0,0,1,4.8-2.3c2.4,0,4,.6,5,1.7s1.5,3.1,1.5,6h8.3l.1-.2c.1-4.8-1.2-8.3-3.8-10.7S1070.8,219.9,1066,219.9Z"/><polygon class="cls-1" points="1094.9 245.3 1108.4 245.3 1108.4 238.6 1094.9 238.6 1094.9 227.3 1111 227.3 1111 220.5 1086.3 220.5 1086.3 264.8 1111 264.8 1111 258.1 1094.9 258.1 1094.9 245.3"/><polygon class="cls-1" points="1139.3 248.8 1139.1 248.8 1125.1 220.5 1116.5 220.5 1116.5 264.8 1125.1 264.8 1125.1 236.6 1125.2 236.6 1139.3 264.8 1147.9 264.8 1147.9 220.5 1139.3 220.5 1139.3 248.8"/><polygon class="cls-1" points="1151.3 227.3 1161.4 227.3 1161.4 264.8 1170 264.8 1170 227.3 1180.4 227.3 1180.4 220.5 1151.3 220.5 1151.3 227.3"/><path class="cls-1" d="M1212.3,257.3v-3.2a13.16,13.16,0,0,0-1.5-6.7,8.32,8.32,0,0,0-5-3.8,11.19,11.19,0,0,0,4.6-4,10.62,10.62,0,0,0,1.6-6c0-4.1-1.3-7.3-3.8-9.6s-6-3.4-10.4-3.4h-13.2v44.2h8.6V247.1h5.2a4.47,4.47,0,0,1,4,1.9,8.69,8.69,0,0,1,1.4,5.2v3.1a32.53,32.53,0,0,0,.3,4.4,5.48,5.48,0,0,0,1.4,3.2h8.9v-.6a5.07,5.07,0,0,1-1.5-3A14.38,14.38,0,0,1,1212.3,257.3ZM1202,238.7a5.18,5.18,0,0,1-4.2,1.7h-4.6V227.3h4.7a5.26,5.26,0,0,1,4.2,1.8,7.81,7.81,0,0,1,1.4,4.9A7.16,7.16,0,0,1,1202,238.7Z"/><path class="cls-1" d="M1228.6,220.5,1216,264.7h8.9l2.5-9.6h11.1l2.5,9.6h9l-12.6-44.2Zm.7,28,3.7-14h.2l3.7,14Z"/><path class="cls-1" d="M1278.4,244.5a24,24,0,0,0-9.7-5.4,22,22,0,0,1-5.3-3.2,5.23,5.23,0,0,1-1.6-3.7,5.77,5.77,0,0,1,1.4-4,4.73,4.73,0,0,1,3.8-1.6,5.23,5.23,0,0,1,4.4,1.8,7.43,7.43,0,0,1,1.5,5.2h8.3l.1-.2a12.32,12.32,0,0,0-3.8-9.8c-2.6-2.4-6.1-3.6-10.4-3.6a15.17,15.17,0,0,0-10,3.4,11.21,11.21,0,0,0-3.9,8.9c0,3.6,1.1,6.5,3.4,8.5a32,32,0,0,0,10.2,5.4,12.6,12.6,0,0,1,4.8,3,5.87,5.87,0,0,1,1.3,4.2,5,5,0,0,1-5.6,5.5,6.48,6.48,0,0,1-5-1.8c-1.1-1.2-1.7-3.2-1.7-6h-8.4l-.1.2c-.1,4.8,1.3,8.3,4.3,10.7a16.86,16.86,0,0,0,10.8,3.5c4.3,0,7.7-1.1,10.2-3.2a11.21,11.21,0,0,0,3.9-8.9A10.29,10.29,0,0,0,1278.4,244.5Z"/></g><polygon class="cls-1" points="56.6 167.4 41.2 221.2 27.2 167.4 0 167.4 27.9 251.3 54.5 251.3 82.5 167.4 56.6 167.4"/><path class="cls-1" d="M203,240.5l3.2,11.2h27.3l-29.4-83.9H177.5l-26.2,74.9-26.2-74.9H98.5L69.2,251.7H95.1l3.5-11.2h25.5l3.1,11.2H174l3.5-11.2Zm-98.6-18.9,7.4-23.8,6.8,23.8Zm93.2,0H183.4l7.4-23.8Z"/><polygon class="cls-1" points="292.5 189.4 292.5 167.8 218.4 167.8 218.4 189.4 242.2 189.4 242.2 251 268.8 251 268.8 189.4 292.5 189.4"/><path class="cls-1" d="M334.5,185.2a15.32,15.32,0,0,1,15.3,14.3H374a35.62,35.62,0,0,0-35.6-35h-5.7a41.21,41.21,0,0,0-41.2,41.2v5.6a41.21,41.21,0,0,0,41.2,41.2h5.7a35.54,35.54,0,0,0,35.5-33.6H349.7a15.4,15.4,0,0,1-30.7-1.7V200.4A15.52,15.52,0,0,1,334.5,185.2Z"/><polygon class="cls-1" points="191.2 104.1 143.6 88.8 149.9 155.2 191.2 104.1"/><polygon class="cls-1" points="203 27.9 177.9 88.8 238 63.6 203 27.9"/><polygon class="cls-1" points="281.3 0 231 44 298.1 48.2 281.3 0"/><polygon class="cls-1" points="365.2 11.9 300.9 27.9 357.6 61.5 365.2 11.9"/><polygon class="cls-1" points="435.2 59.4 370.1 44.7 405.1 100.7 435.2 59.4"/><polygon class="cls-1" points="429.6 157.3 475.7 133.5 424.7 91.6 429.6 157.3"/><polygon class="cls-1" points="425.4 218.8 475.7 218.8 449.8 157.3 425.4 218.8"/><polygon class="cls-1" points="437.2 295 443.5 231.4 394.6 271.2 437.2 295"/><polygon class="cls-1" points="370.8 343.9 403 289.4 341.5 304.1 370.8 343.9"/><polygon class="cls-1" points="285.5 357.9 341.5 324.4 280 309.7 285.5 357.9"/><polygon class="cls-1" points="201.7 329.3 267.4 327.2 218.4 283.1 201.7 329.3"/></g></g></svg>
