<svg xmlns="http://www.w3.org/2000/svg" width="31.353" height="25" viewBox="0 0 31.353 25">
  <path id="cogs-solid" d="M25.08,9.465l-.4.7a.606.606,0,0,1-.74.265,5.414,5.414,0,0,1-1.573-.911.608.608,0,0,1-.137-.769l.4-.7a4.229,4.229,0,0,1-.779-1.342h-.808a.6.6,0,0,1-.6-.5,5.52,5.52,0,0,1,0-1.818.609.609,0,0,1,.6-.51h.808a4.229,4.229,0,0,1,.779-1.342l-.4-.7a.6.6,0,0,1,.137-.769A5.479,5.479,0,0,1,23.939.151a.606.606,0,0,1,.74.265l.4.7a4.354,4.354,0,0,1,1.553,0l.4-.7a.606.606,0,0,1,.74-.265,5.414,5.414,0,0,1,1.573.911.608.608,0,0,1,.137.769l-.4.7a4.229,4.229,0,0,1,.779,1.342h.808a.6.6,0,0,1,.6.5,5.52,5.52,0,0,1,0,1.818.609.609,0,0,1-.6.51h-.808a4.229,4.229,0,0,1-.779,1.342l.4.7a.6.6,0,0,1-.137.769,5.479,5.479,0,0,1-1.573.911.606.606,0,0,1-.74-.265l-.4-.7A4.354,4.354,0,0,1,25.08,9.465Zm-.514-2.881A1.83,1.83,0,0,0,27.153,4,1.83,1.83,0,0,0,24.566,6.584Zm-5.649,7.54,1.651.823a1.178,1.178,0,0,1,.514,1.426A11.566,11.566,0,0,1,19,19.6a1.171,1.171,0,0,1-1.484.26l-1.426-.823a8.416,8.416,0,0,1-2.69,1.553v1.646a1.172,1.172,0,0,1-.965,1.156,11.018,11.018,0,0,1-3.719,0,1.177,1.177,0,0,1-.98-1.156V20.586a8.508,8.508,0,0,1-2.69-1.553l-1.426.818a1.172,1.172,0,0,1-1.484-.26A11.549,11.549,0,0,1,.065,16.373a1.182,1.182,0,0,1,.514-1.426l1.631-.823a8.487,8.487,0,0,1,0-3.106L.579,10.19A1.168,1.168,0,0,1,.065,8.769,11.5,11.5,0,0,1,2.132,5.545a1.171,1.171,0,0,1,1.484-.26l1.426.823a8.416,8.416,0,0,1,2.69-1.553V2.9a1.167,1.167,0,0,1,.96-1.151,11.173,11.173,0,0,1,3.723,0A1.177,1.177,0,0,1,13.4,2.9V4.551A8.508,8.508,0,0,1,16.085,6.1l1.426-.823A1.172,1.172,0,0,1,19,5.54a11.487,11.487,0,0,1,2.063,3.224,1.171,1.171,0,0,1-.49,1.426l-1.651.823A8.514,8.514,0,0,1,18.917,14.124Zm-5.762,1.034c2.9-3.772-1.406-8.079-5.179-5.179C5.077,13.751,9.383,18.058,13.156,15.158ZM25.08,24.109l-.4.7a.606.606,0,0,1-.74.265,5.414,5.414,0,0,1-1.573-.911.608.608,0,0,1-.137-.769l.4-.7a4.229,4.229,0,0,1-.779-1.342h-.808a.6.6,0,0,1-.6-.5,5.52,5.52,0,0,1,0-1.818.609.609,0,0,1,.6-.51h.808a4.229,4.229,0,0,1,.779-1.342l-.4-.7a.6.6,0,0,1,.137-.769,5.479,5.479,0,0,1,1.573-.911.606.606,0,0,1,.74.265l.4.7a4.354,4.354,0,0,1,1.553,0l.4-.7a.606.606,0,0,1,.74-.265,5.414,5.414,0,0,1,1.573.911.608.608,0,0,1,.137.769l-.4.7a4.229,4.229,0,0,1,.779,1.342h.808a.6.6,0,0,1,.6.5,5.52,5.52,0,0,1,0,1.818.609.609,0,0,1-.6.51h-.808a4.229,4.229,0,0,1-.779,1.342l.4.7a.6.6,0,0,1-.137.769,5.479,5.479,0,0,1-1.573.911.606.606,0,0,1-.74-.265l-.4-.7A4.354,4.354,0,0,1,25.08,24.109Zm-.514-2.886a1.83,1.83,0,0,0,2.587-2.587A1.83,1.83,0,0,0,24.566,21.223Z" transform="translate(0.009 -0.112)" fill="#000"/>
</svg>
