<svg xmlns="http://www.w3.org/2000/svg" width="21.875" height="25" viewBox="0 0 21.875 25">
  <path id="trash-alt-solid" d="M1.562,22.656A2.344,2.344,0,0,0,3.906,25H17.969a2.344,2.344,0,0,0,2.344-2.344V6.25H1.562Zm13.281-12.5a.781.781,0,0,1,1.563,0V21.094a.781.781,0,0,1-1.563,0Zm-4.687,0a.781.781,0,1,1,1.562,0V21.094a.781.781,0,1,1-1.562,0Zm-4.687,0a.781.781,0,1,1,1.562,0V21.094a.781.781,0,1,1-1.562,0ZM21.094,1.562H15.234L14.775.649A1.172,1.172,0,0,0,13.726,0H8.145A1.158,1.158,0,0,0,7.1.649l-.459.913H.781A.781.781,0,0,0,0,2.344V3.906a.781.781,0,0,0,.781.781H21.094a.781.781,0,0,0,.781-.781V2.344A.781.781,0,0,0,21.094,1.562Z" transform="translate(0 0)" fill="#ed5a5a"/>
</svg>
