<svg version="1.0" xmlns="http://www.w3.org/2000/svg" width="300" height="300" viewBox="0 0 300.000000 300.000000" preserveAspectRatio="xMidYMid " class="svg" style="width: 256px; height: 256px;">
<g transform="translate(0.000000,300.000000) scale(0.100000,-0.100000)" fill="#070707" stroke="none">
<path d="M470 1652 c-57 -38 -80 -82 -80 -152 0 -71 24 -115 82 -153 25 -16
95 -17 1028 -17 933 0 1003 1 1028 17 58 38 82 82 82 153 0 71 -24 115 -82
153 -25 16 -94 17 -1030 16 -925 0 -1005 -1 -1028 -17z" id="node1" class="node" style="fill: rgb(42, 42, 42);"></path>
</g>
<g transform="translate(0.000000,300.000000) scale(0.100000,-0.100000)" fill="#9B9B9B" stroke="none">

</g>
</svg>
