<svg xmlns="http://www.w3.org/2000/svg" width="35.06" height="35.06" viewBox="0 0 35.06 35.06"><defs><style>.a{fill:#fff;}</style></defs><g transform="translate(-460 -22)"><g transform="translate(460 22)"><path class="a" d="M34.279,14.558l-4.1-1.007a13.23,13.23,0,0,0-.863-2.1l2.1-3.492a1.022,1.022,0,0,0-.144-1.253L28.349,3.794A1.022,1.022,0,0,0,27.1,3.65L23.6,5.745a13.23,13.23,0,0,0-2.1-.863l-.986-4.1A1.054,1.054,0,0,0,19.516,0H15.407A1.054,1.054,0,0,0,14.4.781l-.986,4.1a13.23,13.23,0,0,0-2.1.863L7.827,3.65a1.022,1.022,0,0,0-1.253.144L3.657,6.711a1.022,1.022,0,0,0-.144,1.253l2.1,3.492a13.23,13.23,0,0,0-.863,2.1L.781,14.558A1.012,1.012,0,0,0,0,15.544v4.109a1.012,1.012,0,0,0,.781.986l3.965,1.007a13.23,13.23,0,0,0,.863,2.1l-2.1,3.492a1.022,1.022,0,0,0,.144,1.253L6.574,31.4a1.022,1.022,0,0,0,1.253.144l3.492-2.1a13.23,13.23,0,0,0,2.1.863l.986,3.965a1.054,1.054,0,0,0,1.007.781h4.109a1.054,1.054,0,0,0,1.007-.781l.986-3.965a13.229,13.229,0,0,0,2.1-.863l3.492,2.1a1.022,1.022,0,0,0,1.253-.144l2.917-2.917a1.022,1.022,0,0,0,.144-1.253l-2.1-3.492a13.23,13.23,0,0,0,.863-2.1l4.1-1.007a1.012,1.012,0,0,0,.781-.986V15.544A1.012,1.012,0,0,0,34.279,14.558ZM17.461,22.734A5.136,5.136,0,1,1,22.6,17.6,5.138,5.138,0,0,1,17.461,22.734Z"/></g></g></svg>