<svg xmlns="http://www.w3.org/2000/svg" width="19.73" height="17.803" viewBox="0 0 19.73 17.803"><defs><style>.a{fill:#2a2a2a;}</style></defs><path class="a" d="M99.035,249H97.649a.649.649,0,1,0,0,1.3h1.385a.649.649,0,1,0,0-1.3Z" transform="translate(-93.326 -240.442)"/><path class="a" d="M99.035,313H97.649a.649.649,0,1,0,0,1.3h1.385a.649.649,0,1,0,0-1.3Z" transform="translate(-93.326 -301.997)"/><path class="a" d="M99.035,377H97.649a.649.649,0,0,0,0,1.3h1.385a.649.649,0,0,0,0-1.3Z" transform="translate(-93.326 -363.552)"/><path class="a" d="M227.035,249h-1.385a.649.649,0,0,0,0,1.3h1.385a.649.649,0,1,0,0-1.3Z" transform="translate(-216.477 -240.442)"/><path class="a" d="M227.035,313h-1.385a.649.649,0,1,0,0,1.3h1.385a.649.649,0,0,0,0-1.3Z" transform="translate(-216.477 -301.997)"/><path class="a" d="M227.035,377h-1.385a.649.649,0,1,0,0,1.3h1.385a.649.649,0,0,0,0-1.3Z" transform="translate(-216.477 -363.552)"/><path class="a" d="M355.035,249h-1.385a.649.649,0,1,0,0,1.3h1.385a.649.649,0,1,0,0-1.3Z" transform="translate(-339.629 -240.442)"/><path class="a" d="M355.035,313h-1.385a.649.649,0,1,0,0,1.3h1.385a.649.649,0,1,0,0-1.3Z" transform="translate(-339.629 -301.997)"/><path class="a" d="M355.035,377h-1.385a.649.649,0,1,0,0,1.3h1.385a.649.649,0,1,0,0-1.3Z" transform="translate(-339.629 -363.552)"/><path class="a" d="M18,26.541H16.608v-.963a.578.578,0,1,0-1.156,0v.963H10.443v-.963a.578.578,0,1,0-1.156,0v.963H4.277v-.963a.578.578,0,1,0-1.156,0v.963H1.734A1.736,1.736,0,0,0,0,28.275V41.069A1.736,1.736,0,0,0,1.734,42.8H18a1.736,1.736,0,0,0,1.734-1.734V28.275A1.736,1.736,0,0,0,18,26.541ZM1.156,28.275a.579.579,0,0,1,.578-.578H3.121v.963a.578.578,0,1,0,1.156,0V27.7H9.287v.963a.578.578,0,1,0,1.156,0V27.7h5.009v.963a.578.578,0,1,0,1.156,0V27.7H18a.579.579,0,0,1,.578.578v2.274H1.156ZM18,41.647H1.734a.579.579,0,0,1-.578-.578V31.7H18.574v9.364A.579.579,0,0,1,18,41.647Z" transform="translate(0 -25)"/></svg>