<svg xmlns="http://www.w3.org/2000/svg" width="27" height="17" viewBox="0 0 27 17"><defs><style>.a{fill:#fff;}.b,.c{stroke:none;}.c{fill:#9f9f9f;}</style></defs><g class="a"><path class="b" d="M 24.92893028259277 16.50000190734863 L 2.071079969406128 16.50000190734863 C 1.874580025672913 16.50000190734863 1.706249952316284 16.39436149597168 1.620810031890869 16.2174015045166 C 1.535380005836487 16.04045104980469 1.55731999874115 15.84294128417969 1.679520010948181 15.68907165527344 L 13.10844993591309 1.297081589698792 C 13.20386028289795 1.176931619644165 13.34657955169678 1.10802161693573 13.5 1.10802161693573 C 13.65342044830322 1.10802161693573 13.79613971710205 1.176931619644165 13.89155006408691 1.297081589698792 L 25.32047080993652 15.68906116485596 C 25.44268035888672 15.84294128417969 25.46463012695312 16.04045104980469 25.37919044494629 16.2174015045166 C 25.29375076293945 16.39436149597168 25.12542915344238 16.50000190734863 24.92893028259277 16.50000190734863 Z"/><path class="c" d="M 13.5 1.60802173614502 L 2.071077346801758 16.00000190734863 C 2.071077346801758 16.00000190734863 2.071077346801758 16.00000190734863 2.071069717407227 16.00000190734863 L 24.92892074584961 16.00000190734863 L 13.50189971923828 1.608211517333984 C 13.50170993804932 1.608161926269531 13.50100040435791 1.60802173614502 13.5 1.60802173614502 M 13.5 0.6080207824707031 C 13.79146480560303 0.6080207824707031 14.08292961120605 0.7340621948242188 14.28310966491699 0.9861412048339844 L 25.7120304107666 15.3781213760376 C 26.23245048522949 16.03345108032227 25.76576042175293 17.00000190734863 24.92892074584961 17.00000190734863 L 2.071069717407227 17.00000190734863 C 1.23423957824707 17.00000190734863 0.7675495147705078 16.03345108032227 1.287969589233398 15.3781213760376 L 12.71689033508301 0.9861412048339844 C 12.91707038879395 0.7340621948242188 13.20853519439697 0.6080207824707031 13.5 0.6080207824707031 Z"/></g></svg>